<svg xmlns="http://www.w3.org/2000/svg" viewBox="0 0 200 590" fill="none">
  <g stroke="#7a9ab5" stroke-linecap="round" stroke-linejoin="round" fill="#7a9ab5">

    <!-- MAIN FLOWING S-CURVE STEM -->
    <path d="M 152 14 C 134 68, 96 138, 102 212 C 108 285, 82 350, 90 415 C 96 462, 112 494, 116 552"
          stroke-width="1.3" fill="none"/>

    <!-- ═══ TOP SPRIGS (y 0-55) ═══ -->

    <!-- Upper-right wispy branch -->
    <path d="M 149 20 C 162 12, 175 5, 185 1" stroke-width="0.85" fill="none"/>
    <g transform="translate(168,8)">
      <path d="M 0 0 C -4 -2 -4 -9 0 -12 C 4 -9 4 -2 0 0 Z" fill-opacity="0.5" stroke-width="0.5"/>
      <path d="M 0 0 L 0 -12" stroke-width="0.3" stroke-opacity="0.4" fill="none"/>
    </g>
    <g transform="translate(180,4)">
      <path d="M 0 0 C -3 -2 -3 -7 0 -9 C 3 -7 3 -2 0 0 Z" fill-opacity="0.4" stroke-width="0.5"/>
    </g>

    <!-- Upper-left branch -->
    <path d="M 147 29 C 132 18, 114 10, 98 6" stroke-width="0.85" fill="none"/>
    <g transform="translate(118,13) rotate(-18)">
      <path d="M 0 0 C -5 -4 -5 -13 0 -16 C 5 -13 5 -4 0 0 Z" fill-opacity="0.48" stroke-width="0.55"/>
      <path d="M 0 0 L 0 -16" stroke-width="0.32" stroke-opacity="0.42" fill="none"/>
      <path d="M 0 -5 C -3 -7 -5 -6 -6 -9" stroke-width="0.28" stroke-opacity="0.38" fill="none"/>
      <path d="M 0 -5 C 3 -7 5 -6 6 -9" stroke-width="0.28" stroke-opacity="0.38" fill="none"/>
    </g>
    <!-- Delicate bud at branch tip -->
    <g transform="translate(95,5)">
      <path d="M -2 3 C -5 -1 -4 -8 -1 -11 C 0 -12 1 -11 1 -9 C 4 -5 4 1 2 3 Z" fill-opacity="0.55" stroke-width="0.6"/>
      <path d="M -1 3 C -2 0 -1 -5 -1 -8" stroke-width="0.38" fill="none" stroke-opacity="0.55"/>
      <path d="M 1 3 C 2 0 1 -5 1 -8" stroke-width="0.38" fill="none" stroke-opacity="0.55"/>
    </g>

    <!-- Extra right sprig -->
    <path d="M 148 40 C 160 31, 170 25, 178 21" stroke-width="0.78" fill="none"/>
    <g transform="translate(173,23)">
      <path d="M 0 0 C -3 -2 -2 -7 0 -9 C 2 -7 3 -2 0 0 Z" fill-opacity="0.38" stroke-width="0.48"/>
    </g>

    <!-- ═══ BRANCH 1 (y≈64): 5-petal open flower with detailed leaf ═══ -->
    <path d="M 138 66 C 116 58, 90 55, 66 51" stroke-width="1" fill="none"/>

    <!-- Leaf with veins -->
    <g transform="translate(98,55) rotate(8)">
      <path d="M 0 2 C -8 -4 -8 -19 0 -25 C 8 -19 8 -4 0 2 Z" fill-opacity="0.37" stroke-width="0.68"/>
      <path d="M 0 2 L 0 -25" stroke-width="0.35" stroke-opacity="0.43" fill="none"/>
      <path d="M 0 -6 C -5 -9 -7 -8 -8 -12" stroke-width="0.28" stroke-opacity="0.38" fill="none"/>
      <path d="M 0 -13 C -5 -16 -6 -15 -7 -19" stroke-width="0.28" stroke-opacity="0.38" fill="none"/>
      <path d="M 0 -6 C 5 -9 7 -8 8 -12" stroke-width="0.28" stroke-opacity="0.38" fill="none"/>
      <path d="M 0 -13 C 5 -16 6 -15 7 -19" stroke-width="0.28" stroke-opacity="0.38" fill="none"/>
    </g>

    <!-- 5-petal flower (bezier petals) at (57, 51) -->
    <g transform="translate(57,51)">
      <path d="M -2 1 C -9 -3 -9 -15 -1 -19 C 1 -20 2 -18 2 -16 C 8 -10 7 -2 2 1 Z" fill-opacity="0.44" stroke-width="0.65" transform="rotate(0)"/>
      <path d="M -2 1 C -9 -3 -9 -15 -1 -19 C 1 -20 2 -18 2 -16 C 8 -10 7 -2 2 1 Z" fill-opacity="0.44" stroke-width="0.65" transform="rotate(72)"/>
      <path d="M -2 1 C -9 -3 -9 -15 -1 -19 C 1 -20 2 -18 2 -16 C 8 -10 7 -2 2 1 Z" fill-opacity="0.44" stroke-width="0.65" transform="rotate(144)"/>
      <path d="M -2 1 C -9 -3 -9 -15 -1 -19 C 1 -20 2 -18 2 -16 C 8 -10 7 -2 2 1 Z" fill-opacity="0.44" stroke-width="0.65" transform="rotate(216)"/>
      <path d="M -2 1 C -9 -3 -9 -15 -1 -19 C 1 -20 2 -18 2 -16 C 8 -10 7 -2 2 1 Z" fill-opacity="0.44" stroke-width="0.65" transform="rotate(288)"/>
      <circle r="4.2" fill-opacity="0.7" stroke="none"/>
      <circle r="1.6" fill="white" fill-opacity="0.38" stroke="none"/>
      <circle cx="0" cy="-5" r="0.85" fill-opacity="0.92" stroke="none"/>
      <circle cx="2.6" cy="-4.2" r="0.85" fill-opacity="0.92" stroke="none"/>
      <circle cx="-2.6" cy="-4.2" r="0.85" fill-opacity="0.92" stroke="none"/>
    </g>

    <!-- ═══ BRANCH 2 (y≈114): leaf cluster + bud ═══ -->
    <path d="M 114 116 C 92 109, 68 106, 46 102" stroke-width="1" fill="none"/>

    <g transform="translate(80,108) rotate(6)">
      <path d="M 0 2 C -7 -3 -7 -17 0 -22 C 7 -17 7 -3 0 2 Z" fill-opacity="0.37" stroke-width="0.68"/>
      <path d="M 0 2 L 0 -22" stroke-width="0.35" stroke-opacity="0.43" fill="none"/>
      <path d="M 0 -6 C -4 -9 -6 -8 -7 -12" stroke-width="0.27" stroke-opacity="0.37" fill="none"/>
      <path d="M 0 -12 C -4 -15 -5 -14 -6 -18" stroke-width="0.27" stroke-opacity="0.37" fill="none"/>
      <path d="M 0 -6 C 4 -9 6 -8 7 -12" stroke-width="0.27" stroke-opacity="0.37" fill="none"/>
    </g>
    <g transform="translate(63,105) rotate(-6)">
      <path d="M 0 2 C -6 -2 -6 -14 0 -18 C 6 -14 6 -2 0 2 Z" fill-opacity="0.33" stroke-width="0.62"/>
      <path d="M 0 2 L 0 -18" stroke-width="0.32" stroke-opacity="0.38" fill="none"/>
    </g>
    <!-- Bud on small offset stem -->
    <path d="M 46 102 C 40 96, 36 95, 34 101" stroke-width="0.82" fill="none"/>
    <g transform="translate(32,92)">
      <path d="M -3 4 C -6 -1 -5 -11 -1 -15 C 0 -17 1 -15 1 -12 C 5 -7 5 0 3 4 Z" fill-opacity="0.53" stroke-width="0.65"/>
      <path d="M -1 4 C -2 0 -1 -6 -1 -11" stroke-width="0.4" fill="none" stroke-opacity="0.52"/>
      <path d="M 1 4 C 2 0 1 -6 1 -11" stroke-width="0.4" fill="none" stroke-opacity="0.52"/>
      <circle cx="0" cy="-15" r="2" fill-opacity="0.55" stroke="none"/>
    </g>

    <!-- ═══ BRANCH 3 (y≈168): LARGE PEONY / ROSE ═══ -->
    <path d="M 105 170 C 84 162, 60 159, 40 156" stroke-width="1" fill="none"/>

    <!-- Flanking leaf -->
    <g transform="translate(68,160) rotate(7)">
      <path d="M 0 2 C -8 -4 -8 -20 0 -26 C 8 -20 8 -4 0 2 Z" fill-opacity="0.36" stroke-width="0.68"/>
      <path d="M 0 2 L 0 -26" stroke-width="0.36" stroke-opacity="0.43" fill="none"/>
      <path d="M 0 -7 C -5 -10 -7 -9 -8 -13" stroke-width="0.28" stroke-opacity="0.37" fill="none"/>
      <path d="M 0 -14 C -5 -17 -6 -16 -7 -21" stroke-width="0.28" stroke-opacity="0.37" fill="none"/>
      <path d="M 0 -7 C 5 -10 7 -9 8 -13" stroke-width="0.28" stroke-opacity="0.37" fill="none"/>
      <path d="M 0 -14 C 5 -17 6 -16 7 -21" stroke-width="0.28" stroke-opacity="0.37" fill="none"/>
    </g>

    <!-- LARGE PEONY at (26, 156) — 6 outer + 5 inner + 3 innermost petals -->
    <g transform="translate(26,156)">
      <!-- Outer petals (6) -->
      <path d="M -4 2 C -16 -5 -14 -27 -3 -35 C 0 -37 3 -35 3 -31 C 14 -23 13 -6 4 2 Z" fill-opacity="0.34" stroke-width="0.72" transform="rotate(0)"/>
      <path d="M -4 2 C -16 -5 -14 -27 -3 -35 C 0 -37 3 -35 3 -31 C 14 -23 13 -6 4 2 Z" fill-opacity="0.34" stroke-width="0.72" transform="rotate(60)"/>
      <path d="M -4 2 C -16 -5 -14 -27 -3 -35 C 0 -37 3 -35 3 -31 C 14 -23 13 -6 4 2 Z" fill-opacity="0.34" stroke-width="0.72" transform="rotate(120)"/>
      <path d="M -4 2 C -16 -5 -14 -27 -3 -35 C 0 -37 3 -35 3 -31 C 14 -23 13 -6 4 2 Z" fill-opacity="0.34" stroke-width="0.72" transform="rotate(180)"/>
      <path d="M -4 2 C -16 -5 -14 -27 -3 -35 C 0 -37 3 -35 3 -31 C 14 -23 13 -6 4 2 Z" fill-opacity="0.34" stroke-width="0.72" transform="rotate(240)"/>
      <path d="M -4 2 C -16 -5 -14 -27 -3 -35 C 0 -37 3 -35 3 -31 C 14 -23 13 -6 4 2 Z" fill-opacity="0.34" stroke-width="0.72" transform="rotate(300)"/>
      <!-- Inner petals (5, offset 36°) -->
      <path d="M -3 2 C -11 -4 -10 -20 -2 -26 C 0 -28 2 -26 2 -23 C 10 -16 9 -4 3 2 Z" fill-opacity="0.5" stroke-width="0.67" transform="rotate(36)"/>
      <path d="M -3 2 C -11 -4 -10 -20 -2 -26 C 0 -28 2 -26 2 -23 C 10 -16 9 -4 3 2 Z" fill-opacity="0.5" stroke-width="0.67" transform="rotate(108)"/>
      <path d="M -3 2 C -11 -4 -10 -20 -2 -26 C 0 -28 2 -26 2 -23 C 10 -16 9 -4 3 2 Z" fill-opacity="0.5" stroke-width="0.67" transform="rotate(180)"/>
      <path d="M -3 2 C -11 -4 -10 -20 -2 -26 C 0 -28 2 -26 2 -23 C 10 -16 9 -4 3 2 Z" fill-opacity="0.5" stroke-width="0.67" transform="rotate(252)"/>
      <path d="M -3 2 C -11 -4 -10 -20 -2 -26 C 0 -28 2 -26 2 -23 C 10 -16 9 -4 3 2 Z" fill-opacity="0.5" stroke-width="0.67" transform="rotate(324)"/>
      <!-- Innermost petals (3) -->
      <path d="M -2 2 C -7 -1 -6 -13 -1 -16 C 0 -17 1 -16 1 -14 C 6 -10 5 -1 2 2 Z" fill-opacity="0.66" stroke-width="0.6" transform="rotate(20)"/>
      <path d="M -2 2 C -7 -1 -6 -13 -1 -16 C 0 -17 1 -16 1 -14 C 6 -10 5 -1 2 2 Z" fill-opacity="0.66" stroke-width="0.6" transform="rotate(140)"/>
      <path d="M -2 2 C -7 -1 -6 -13 -1 -16 C 0 -17 1 -16 1 -14 C 6 -10 5 -1 2 2 Z" fill-opacity="0.66" stroke-width="0.6" transform="rotate(260)"/>
      <!-- Center disk -->
      <circle r="5.5" fill-opacity="0.72" stroke="none"/>
      <!-- Stamen ring -->
      <circle cx="0" cy="-6.5" r="0.95" fill-opacity="0.96" stroke="none"/>
      <circle cx="3.3" cy="-5.6" r="0.95" fill-opacity="0.96" stroke="none"/>
      <circle cx="5.8" cy="-3" r="0.95" fill-opacity="0.96" stroke="none"/>
      <circle cx="-3.3" cy="-5.6" r="0.95" fill-opacity="0.96" stroke="none"/>
      <circle cx="-5.8" cy="-3" r="0.95" fill-opacity="0.96" stroke="none"/>
      <circle cx="2" cy="-7" r="0.95" fill-opacity="0.96" stroke="none"/>
      <circle cx="-2" cy="-7" r="0.95" fill-opacity="0.96" stroke="none"/>
      <circle cx="0" cy="-3" r="1.5" fill="white" fill-opacity="0.4" stroke="none"/>
    </g>

    <!-- ═══ BRANCH 4 (y≈225): berry cluster ═══ -->
    <path d="M 98 228 C 78 221, 56 219, 36 215" stroke-width="1" fill="none"/>

    <g transform="translate(62,219) rotate(-4)">
      <path d="M 0 2 C -7 -3 -7 -16 0 -21 C 7 -16 7 -3 0 2 Z" fill-opacity="0.36" stroke-width="0.67"/>
      <path d="M 0 2 L 0 -21" stroke-width="0.34" stroke-opacity="0.42" fill="none"/>
      <path d="M 0 -6 C -4 -9 -5 -8 -6 -11" stroke-width="0.27" stroke-opacity="0.37" fill="none"/>
      <path d="M 0 -6 C 4 -9 5 -8 6 -11" stroke-width="0.27" stroke-opacity="0.37" fill="none"/>
    </g>
    <!-- Berries on thin stems -->
    <path d="M 36 215 C 31 209, 27 208, 25 213" stroke-width="0.8" fill="none"/>
    <circle cx="24" cy="211" r="4.5" fill-opacity="0.5" stroke="none"/>
    <path d="M 36 215 C 32 207, 28 204, 26 209" stroke-width="0.8" fill="none"/>
    <circle cx="24" cy="203" r="4" fill-opacity="0.46" stroke="none"/>
    <path d="M 37 215 C 39 206, 43 203, 45 208" stroke-width="0.8" fill="none"/>
    <circle cx="46" cy="205" r="3.8" fill-opacity="0.43" stroke="none"/>
    <path d="M 36 215 C 29 209, 23 209, 20 214" stroke-width="0.8" fill="none"/>
    <circle cx="18" cy="213" r="3.4" fill-opacity="0.4" stroke="none"/>
    <!-- Shine dots on berries -->
    <circle cx="22" cy="209" r="1" fill="white" fill-opacity="0.35" stroke="none"/>
    <circle cx="22" cy="201" r="1" fill="white" fill-opacity="0.35" stroke="none"/>
    <!-- Small leaf near berries -->
    <g transform="translate(46,210) rotate(-25)">
      <path d="M 0 0 C -4 -3 -3 -9 0 -11 C 3 -9 4 -3 0 0 Z" fill-opacity="0.34" stroke-width="0.5"/>
    </g>

    <!-- ═══ BRANCH 5 (y≈278): 6-petal flower + lobed leaf ═══ -->
    <path d="M 90 281 C 70 275, 48 273, 28 269" stroke-width="1" fill="none"/>

    <!-- Lobed leaf -->
    <g transform="translate(56,274) rotate(9)">
      <path d="M 0 4 C -10 -2 -11 -16 -5 -24 C -9 -19 -12 -13 -10 -7 C -13 -12 -13 -19 -7 -23 C -3 -27 3 -27 7 -23 C 13 -19 13 -11 10 -7 C 12 -12 9 -19 5 -24 C 11 -16 10 -2 0 4 Z" fill-opacity="0.34" stroke-width="0.65"/>
      <path d="M 0 4 L 0 -22" stroke-width="0.34" stroke-opacity="0.4" fill="none"/>
    </g>

    <!-- 6-petal flower at (19, 269) -->
    <g transform="translate(19,269)">
      <path d="M -2 1 C -10 -4 -9 -18 -2 -23 C 0 -25 2 -23 2 -20 C 9 -14 9 -3 2 1 Z" fill-opacity="0.43" stroke-width="0.67" transform="rotate(0)"/>
      <path d="M -2 1 C -10 -4 -9 -18 -2 -23 C 0 -25 2 -23 2 -20 C 9 -14 9 -3 2 1 Z" fill-opacity="0.43" stroke-width="0.67" transform="rotate(60)"/>
      <path d="M -2 1 C -10 -4 -9 -18 -2 -23 C 0 -25 2 -23 2 -20 C 9 -14 9 -3 2 1 Z" fill-opacity="0.43" stroke-width="0.67" transform="rotate(120)"/>
      <path d="M -2 1 C -10 -4 -9 -18 -2 -23 C 0 -25 2 -23 2 -20 C 9 -14 9 -3 2 1 Z" fill-opacity="0.43" stroke-width="0.67" transform="rotate(180)"/>
      <path d="M -2 1 C -10 -4 -9 -18 -2 -23 C 0 -25 2 -23 2 -20 C 9 -14 9 -3 2 1 Z" fill-opacity="0.43" stroke-width="0.67" transform="rotate(240)"/>
      <path d="M -2 1 C -10 -4 -9 -18 -2 -23 C 0 -25 2 -23 2 -20 C 9 -14 9 -3 2 1 Z" fill-opacity="0.43" stroke-width="0.67" transform="rotate(300)"/>
      <circle r="4.5" fill-opacity="0.7" stroke="none"/>
      <circle r="1.8" fill="white" fill-opacity="0.38" stroke="none"/>
      <circle cx="0" cy="-5.5" r="0.85" fill-opacity="0.92" stroke="none"/>
      <circle cx="2.8" cy="-4.7" r="0.85" fill-opacity="0.92" stroke="none"/>
      <circle cx="-2.8" cy="-4.7" r="0.85" fill-opacity="0.92" stroke="none"/>
    </g>

    <!-- ═══ BRANCH 6 (y≈332): tulip buds + leaf ═══ -->
    <path d="M 88 334 C 68 328, 47 325, 28 322" stroke-width="1" fill="none"/>

    <g transform="translate(53,326) rotate(4)">
      <path d="M 0 2 C -8 -3 -8 -18 0 -24 C 8 -18 8 -3 0 2 Z" fill-opacity="0.36" stroke-width="0.67"/>
      <path d="M 0 2 L 0 -24" stroke-width="0.35" stroke-opacity="0.42" fill="none"/>
      <path d="M 0 -7 C -5 -10 -7 -9 -8 -13" stroke-width="0.27" stroke-opacity="0.37" fill="none"/>
      <path d="M 0 -14 C -5 -17 -6 -16 -7 -20" stroke-width="0.27" stroke-opacity="0.37" fill="none"/>
      <path d="M 0 -7 C 5 -10 7 -9 8 -13" stroke-width="0.27" stroke-opacity="0.37" fill="none"/>
    </g>
    <!-- Tulip bud 1 -->
    <path d="M 28 322 C 22 316, 18 314, 16 320" stroke-width="0.85" fill="none"/>
    <g transform="translate(13,308)">
      <path d="M -4 7 C -8 0 -7 -11 -2 -15 C 0 -17 0 -15 0 -12 C 6 -6 5 2 2 7 Z" fill-opacity="0.5" stroke-width="0.65"/>
      <path d="M 0 7 C -4 2 -4 -9 0 -15 C 4 -9 4 2 0 7 Z" fill-opacity="0.44" stroke-width="0.65"/>
      <path d="M 4 7 C 8 0 7 -11 2 -15 C 0 -17 0 -15 0 -12 C -6 -6 -5 2 -2 7 Z" fill-opacity="0.5" stroke-width="0.65"/>
      <path d="M -2 7 C -3 2 -2 -5 -1 -11" stroke-width="0.38" fill="none" stroke-opacity="0.48"/>
      <path d="M 2 7 C 3 2 2 -5 1 -11" stroke-width="0.38" fill="none" stroke-opacity="0.48"/>
    </g>
    <!-- Tulip bud 2 (smaller, more closed) -->
    <path d="M 28 322 C 24 314, 22 310, 24 317" stroke-width="0.85" fill="none"/>
    <g transform="translate(22,308)">
      <path d="M -3 4 C -5 -1 -5 -9 -1 -12 C 0 -13 0 -12 0 -10 C 4 -5 4 1 2 4 Z" fill-opacity="0.48" stroke-width="0.6"/>
      <path d="M 0 4 C -3 0 -3 -7 0 -10 C 3 -7 3 0 0 4 Z" fill-opacity="0.42" stroke-width="0.6"/>
    </g>

    <!-- ═══ BRANCH 7 (y≈388): 5-petal medium flower + leaves ═══ -->
    <path d="M 86 390 C 65 383, 43 380, 23 376" stroke-width="1" fill="none"/>

    <g transform="translate(57,383) rotate(7)">
      <path d="M 0 2 C -8 -4 -7 -19 0 -25 C 7 -19 8 -4 0 2 Z" fill-opacity="0.36" stroke-width="0.67"/>
      <path d="M 0 2 L 0 -25" stroke-width="0.35" stroke-opacity="0.43" fill="none"/>
      <path d="M 0 -7 C -5 -10 -7 -9 -8 -13" stroke-width="0.27" stroke-opacity="0.37" fill="none"/>
      <path d="M 0 -14 C -5 -17 -6 -16 -7 -21" stroke-width="0.27" stroke-opacity="0.37" fill="none"/>
      <path d="M 0 -7 C 5 -10 7 -9 8 -13" stroke-width="0.27" stroke-opacity="0.37" fill="none"/>
    </g>
    <g transform="translate(40,379) rotate(-4)">
      <path d="M 0 2 C -6 -2 -6 -14 0 -18 C 6 -14 6 -2 0 2 Z" fill-opacity="0.32" stroke-width="0.62"/>
      <path d="M 0 2 L 0 -18" stroke-width="0.32" stroke-opacity="0.38" fill="none"/>
    </g>

    <!-- 5-petal flower at (14, 376) -->
    <g transform="translate(14,376)">
      <path d="M -3 2 C -12 -5 -11 -21 -2 -27 C 0 -29 2 -27 2 -24 C 11 -17 10 -4 3 2 Z" fill-opacity="0.4" stroke-width="0.7" transform="rotate(0)"/>
      <path d="M -3 2 C -12 -5 -11 -21 -2 -27 C 0 -29 2 -27 2 -24 C 11 -17 10 -4 3 2 Z" fill-opacity="0.4" stroke-width="0.7" transform="rotate(72)"/>
      <path d="M -3 2 C -12 -5 -11 -21 -2 -27 C 0 -29 2 -27 2 -24 C 11 -17 10 -4 3 2 Z" fill-opacity="0.4" stroke-width="0.7" transform="rotate(144)"/>
      <path d="M -3 2 C -12 -5 -11 -21 -2 -27 C 0 -29 2 -27 2 -24 C 11 -17 10 -4 3 2 Z" fill-opacity="0.4" stroke-width="0.7" transform="rotate(216)"/>
      <path d="M -3 2 C -12 -5 -11 -21 -2 -27 C 0 -29 2 -27 2 -24 C 11 -17 10 -4 3 2 Z" fill-opacity="0.4" stroke-width="0.7" transform="rotate(288)"/>
      <circle r="5" fill-opacity="0.67" stroke="none"/>
      <circle r="2" fill="white" fill-opacity="0.36" stroke="none"/>
      <circle cx="0" cy="-6" r="0.9" fill-opacity="0.93" stroke="none"/>
      <circle cx="3.2" cy="-5" r="0.9" fill-opacity="0.93" stroke="none"/>
      <circle cx="-3.2" cy="-5" r="0.9" fill-opacity="0.93" stroke="none"/>
      <circle cx="2" cy="-6.8" r="0.9" fill-opacity="0.93" stroke="none"/>
      <circle cx="-2" cy="-6.8" r="0.9" fill-opacity="0.93" stroke="none"/>
    </g>

    <!-- ═══ BRANCH 8 (y≈452): SECOND LARGE FLOWER (8-petal layered) ═══ -->
    <path d="M 88 454 C 68 447, 46 450, 28 460" stroke-width="1" fill="none"/>

    <g transform="translate(54,449) rotate(5)">
      <path d="M 0 2 C -8 -4 -7 -19 0 -25 C 7 -19 8 -4 0 2 Z" fill-opacity="0.36" stroke-width="0.67"/>
      <path d="M 0 2 L 0 -25" stroke-width="0.35" stroke-opacity="0.43" fill="none"/>
      <path d="M 0 -7 C -5 -10 -7 -9 -8 -13" stroke-width="0.27" stroke-opacity="0.37" fill="none"/>
      <path d="M 0 -7 C 5 -10 7 -9 8 -13" stroke-width="0.27" stroke-opacity="0.37" fill="none"/>
      <path d="M 0 -15 C -4 -18 -5 -17 -6 -21" stroke-width="0.27" stroke-opacity="0.37" fill="none"/>
      <path d="M 0 -15 C 4 -18 5 -17 6 -21" stroke-width="0.27" stroke-opacity="0.37" fill="none"/>
    </g>

    <!-- Large 8-petal + 6-inner + 4-innermost flower at (18, 464) -->
    <g transform="translate(18,464)">
      <!-- Outer 8 petals -->
      <path d="M -4 2 C -15 -6 -14 -26 -3 -33 C 0 -35 3 -33 3 -29 C 14 -21 13 -5 4 2 Z" fill-opacity="0.31" stroke-width="0.72" transform="rotate(0)"/>
      <path d="M -4 2 C -15 -6 -14 -26 -3 -33 C 0 -35 3 -33 3 -29 C 14 -21 13 -5 4 2 Z" fill-opacity="0.31" stroke-width="0.72" transform="rotate(45)"/>
      <path d="M -4 2 C -15 -6 -14 -26 -3 -33 C 0 -35 3 -33 3 -29 C 14 -21 13 -5 4 2 Z" fill-opacity="0.31" stroke-width="0.72" transform="rotate(90)"/>
      <path d="M -4 2 C -15 -6 -14 -26 -3 -33 C 0 -35 3 -33 3 -29 C 14 -21 13 -5 4 2 Z" fill-opacity="0.31" stroke-width="0.72" transform="rotate(135)"/>
      <path d="M -4 2 C -15 -6 -14 -26 -3 -33 C 0 -35 3 -33 3 -29 C 14 -21 13 -5 4 2 Z" fill-opacity="0.31" stroke-width="0.72" transform="rotate(180)"/>
      <path d="M -4 2 C -15 -6 -14 -26 -3 -33 C 0 -35 3 -33 3 -29 C 14 -21 13 -5 4 2 Z" fill-opacity="0.31" stroke-width="0.72" transform="rotate(225)"/>
      <path d="M -4 2 C -15 -6 -14 -26 -3 -33 C 0 -35 3 -33 3 -29 C 14 -21 13 -5 4 2 Z" fill-opacity="0.31" stroke-width="0.72" transform="rotate(270)"/>
      <path d="M -4 2 C -15 -6 -14 -26 -3 -33 C 0 -35 3 -33 3 -29 C 14 -21 13 -5 4 2 Z" fill-opacity="0.31" stroke-width="0.72" transform="rotate(315)"/>
      <!-- Inner 6 petals (offset 22°) -->
      <path d="M -3 2 C -11 -4 -10 -20 -2 -26 C 0 -28 2 -26 2 -23 C 10 -16 9 -3 3 2 Z" fill-opacity="0.48" stroke-width="0.67" transform="rotate(22)"/>
      <path d="M -3 2 C -11 -4 -10 -20 -2 -26 C 0 -28 2 -26 2 -23 C 10 -16 9 -3 3 2 Z" fill-opacity="0.48" stroke-width="0.67" transform="rotate(82)"/>
      <path d="M -3 2 C -11 -4 -10 -20 -2 -26 C 0 -28 2 -26 2 -23 C 10 -16 9 -3 3 2 Z" fill-opacity="0.48" stroke-width="0.67" transform="rotate(142)"/>
      <path d="M -3 2 C -11 -4 -10 -20 -2 -26 C 0 -28 2 -26 2 -23 C 10 -16 9 -3 3 2 Z" fill-opacity="0.48" stroke-width="0.67" transform="rotate(202)"/>
      <path d="M -3 2 C -11 -4 -10 -20 -2 -26 C 0 -28 2 -26 2 -23 C 10 -16 9 -3 3 2 Z" fill-opacity="0.48" stroke-width="0.67" transform="rotate(262)"/>
      <path d="M -3 2 C -11 -4 -10 -20 -2 -26 C 0 -28 2 -26 2 -23 C 10 -16 9 -3 3 2 Z" fill-opacity="0.48" stroke-width="0.67" transform="rotate(322)"/>
      <!-- Innermost 4 petals -->
      <path d="M -2 2 C -7 -1 -7 -13 -1 -17 C 0 -18 1 -17 1 -14 C 7 -9 6 -1 2 2 Z" fill-opacity="0.65" stroke-width="0.6" transform="rotate(45)"/>
      <path d="M -2 2 C -7 -1 -7 -13 -1 -17 C 0 -18 1 -17 1 -14 C 7 -9 6 -1 2 2 Z" fill-opacity="0.65" stroke-width="0.6" transform="rotate(135)"/>
      <path d="M -2 2 C -7 -1 -7 -13 -1 -17 C 0 -18 1 -17 1 -14 C 7 -9 6 -1 2 2 Z" fill-opacity="0.65" stroke-width="0.6" transform="rotate(225)"/>
      <path d="M -2 2 C -7 -1 -7 -13 -1 -17 C 0 -18 1 -17 1 -14 C 7 -9 6 -1 2 2 Z" fill-opacity="0.65" stroke-width="0.6" transform="rotate(315)"/>
      <!-- Center -->
      <circle r="6.2" fill-opacity="0.72" stroke="none"/>
      <!-- Dense stamen ring -->
      <circle cx="0" cy="-7.2" r="1" fill-opacity="0.96" stroke="none"/>
      <circle cx="3.6" cy="-6.2" r="1" fill-opacity="0.96" stroke="none"/>
      <circle cx="6.2" cy="-3.6" r="1" fill-opacity="0.96" stroke="none"/>
      <circle cx="-3.6" cy="-6.2" r="1" fill-opacity="0.96" stroke="none"/>
      <circle cx="-6.2" cy="-3.6" r="1" fill-opacity="0.96" stroke="none"/>
      <circle cx="2" cy="-7.5" r="1" fill-opacity="0.96" stroke="none"/>
      <circle cx="-2" cy="-7.5" r="1" fill-opacity="0.96" stroke="none"/>
      <circle cx="0" cy="-3.5" r="1.6" fill="white" fill-opacity="0.42" stroke="none"/>
    </g>

    <!-- ═══ BOTTOM WISPY SECTION (y 504-558) ═══ -->
    <path d="M 114 506 C 96 514, 78 518, 62 522" stroke-width="0.88" fill="none"/>
    <path d="M 115 514 C 98 526, 86 532, 78 538" stroke-width="0.88" fill="none"/>

    <g transform="translate(80,519) rotate(12)">
      <path d="M 0 0 C -4 -3 -4 -11 0 -14 C 4 -11 4 -3 0 0 Z" fill-opacity="0.35" stroke-width="0.53"/>
      <path d="M 0 0 L 0 -14" stroke-width="0.28" stroke-opacity="0.38" fill="none"/>
    </g>
    <g transform="translate(65,523) rotate(-8)">
      <path d="M 0 0 C -3 -2 -3 -8 0 -10 C 3 -8 3 -2 0 0 Z" fill-opacity="0.3" stroke-width="0.5"/>
    </g>
    <g transform="translate(84,533) rotate(4)">
      <path d="M 0 0 C -4 -3 -3 -10 0 -13 C 3 -10 4 -3 0 0 Z" fill-opacity="0.3" stroke-width="0.5"/>
    </g>

    <!-- Tiny flower at wispy end -->
    <g transform="translate(60,522)">
      <path d="M -1.5 1 C -6 -2 -5 -11 -1 -14 C 0 -15 1 -14 1 -12 C 6 -8 5 -1 1.5 1 Z" fill-opacity="0.4" stroke-width="0.55" transform="rotate(0)"/>
      <path d="M -1.5 1 C -6 -2 -5 -11 -1 -14 C 0 -15 1 -14 1 -12 C 6 -8 5 -1 1.5 1 Z" fill-opacity="0.4" stroke-width="0.55" transform="rotate(72)"/>
      <path d="M -1.5 1 C -6 -2 -5 -11 -1 -14 C 0 -15 1 -14 1 -12 C 6 -8 5 -1 1.5 1 Z" fill-opacity="0.4" stroke-width="0.55" transform="rotate(144)"/>
      <path d="M -1.5 1 C -6 -2 -5 -11 -1 -14 C 0 -15 1 -14 1 -12 C 6 -8 5 -1 1.5 1 Z" fill-opacity="0.4" stroke-width="0.55" transform="rotate(216)"/>
      <path d="M -1.5 1 C -6 -2 -5 -11 -1 -14 C 0 -15 1 -14 1 -12 C 6 -8 5 -1 1.5 1 Z" fill-opacity="0.4" stroke-width="0.55" transform="rotate(288)"/>
      <circle r="3" fill-opacity="0.66" stroke="none"/>
    </g>

    <!-- Closing bud -->
    <g transform="translate(79,539)">
      <path d="M -2 3 C -5 -1 -4 -9 -1 -12 C 0 -13 1 -12 1 -10 C 4 -6 4 0 2 3 Z" fill-opacity="0.46" stroke-width="0.57"/>
      <path d="M -1 3 C -2 0 -1 -5 -1 -9" stroke-width="0.33" fill="none" stroke-opacity="0.47"/>
      <path d="M 1 3 C 2 0 1 -5 1 -9" stroke-width="0.33" fill="none" stroke-opacity="0.47"/>
    </g>

  </g>
</svg>
